<svg id="Layer_1" data-name="Layer 1" xmlns="http://www.w3.org/2000/svg" viewBox="0 0 3000 3000"><defs><style>.cls-1{fill:#fff;}.cls-2{fill:#1f5a86;}.cls-3{fill:#7e1923;}.cls-4{fill:#081821;}</style></defs><title>abiding_love_vector_file</title><circle class="cls-1" cx="1499.19" cy="1072.71" r="1009.16"/><path class="cls-2" d="M2288.73,1450.85c-46.63,0-69.43,11.37-93.56,23.41-25.64,12.78-52.14,26-104.59,26s-78.95-13.21-104.58-26c-24.14-12-46.93-23.41-93.56-23.41s-69.43,11.37-93.56,23.41c-25.63,12.78-52.14,26-104.58,26s-79-13.21-104.58-26c-24.14-12-46.94-23.41-93.57-23.41s-69.42,11.37-93.56,23.41c-25.63,12.78-52.13,26-104.58,26s-79-13.21-104.59-26c-24.13-12-46.93-23.41-93.56-23.41s-69.42,11.37-93.56,23.41c-25.63,12.78-52.14,26-104.58,26s-79-13.21-104.58-26c-24.13-12-46.93-23.41-93.56-23.41s-69.42,11.37-93.55,23.41c-9.3,4.63-18.73,9.32-29.45,13.42q17.64,39.13,38.52,76.42c20.66-9,45.35-16.41,84.48-16.41,52.45,0,78.95,13.22,104.58,26,24.14,12,46.93,23.4,93.56,23.4s69.42-11.36,93.56-23.4c25.63-12.78,52.14-26,104.58-26s79,13.22,104.58,26c24.14,12,46.94,23.4,93.57,23.4s69.42-11.36,93.56-23.4c25.63-12.78,52.14-26,104.58-26s78.95,13.22,104.59,26c24.13,12,46.93,23.4,93.56,23.4s69.42-11.36,93.56-23.4c25.63-12.78,52.14-26,104.58-26s79,13.22,104.58,26c24.13,12,46.93,23.4,93.56,23.4s69.43-11.36,93.57-23.4c25.63-12.78,52.14-26,104.58-26,43.08,0,68.65,8.92,90.61,19.19q21.06-37.45,39-76.81c-13.55-4.61-24.88-10.25-36-15.81C2358.15,1462.22,2335.36,1450.85,2288.73,1450.85Z"/><path class="cls-2" d="M1500,65.82c-556.72,0-1008,451.31-1008,1008A1004.9,1004.9,0,0,0,570.69,1465c10.16-3.79,19.15-8.27,28.32-12.84,25.63-12.78,52.13-26,104.57-26s78.95,13.22,104.58,26c24.14,12,46.93,23.4,93.56,23.4s69.42-11.36,93.56-23.4c25.63-12.78,52.14-26,104.58-26s79,13.22,104.58,26c24.14,12,46.94,23.4,93.57,23.4s69.42-11.36,93.56-23.4c25.63-12.78,52.14-26,104.58-26s78.95,13.22,104.59,26c24.13,12,46.93,23.4,93.56,23.4s69.42-11.36,93.56-23.4c25.63-12.78,52.14-26,104.58-26s79,13.22,104.58,26c24.13,12,46.93,23.4,93.56,23.4s69.43-11.36,93.57-23.4c25.63-12.78,52.14-26,104.58-26s78.95,13.22,104.58,26c11.13,5.55,22,10.94,35,15.16A1004.85,1004.85,0,0,0,2508,1073.85C2508,517.13,2056.72,65.82,1500,65.82Zm860.17,1250c-18.15-6.5-40.17-11.22-71.44-11.22-52.44,0-78.95,13.22-104.58,26-24.14,12-46.94,23.4-93.57,23.4s-69.43-11.36-93.56-23.4c-25.63-12.78-52.14-26-104.58-26s-79,13.22-104.58,26c-24.14,12-46.93,23.4-93.56,23.4s-69.43-11.36-93.56-23.4c-25.64-12.78-52.14-26-104.59-26s-79,13.22-104.58,26c-24.14,12-46.93,23.4-93.56,23.4s-69.43-11.36-93.57-23.4c-25.63-12.78-52.14-26-104.58-26s-78.95,13.22-104.58,26c-24.14,12-46.93,23.4-93.56,23.4s-69.42-11.36-93.56-23.4c-25.63-12.78-52.13-26-104.58-26-27.34,0-47.59,3.61-64.38,8.86a893.82,893.82,0,0,1-32.56-239.62c0-493.39,400-893.36,893.36-893.36s893.36,400,893.36,893.36A894.24,894.24,0,0,1,2360.17,1315.83Z"/><path class="cls-2" d="M2195.17,1717.34c-25.64,12.78-52.14,26-104.59,26s-78.95-13.22-104.58-26c-24.14-12-46.93-23.4-93.56-23.4s-69.43,11.36-93.56,23.4c-25.63,12.78-52.14,26-104.58,26s-79-13.22-104.58-26c-24.14-12-46.94-23.4-93.57-23.4s-69.42,11.36-93.56,23.4c-25.63,12.78-52.13,26-104.58,26s-79-13.22-104.59-26c-24.13-12-46.93-23.4-93.56-23.4s-69.42,11.36-93.56,23.4c-25.63,12.78-52.14,26-104.58,26s-79-13.22-104.58-26c-23.83-11.89-46.41-23.1-91.87-23.38a1014.2,1014.2,0,0,0,125,133.21c17.9,7.45,38.83,13,71.42,13,46.63,0,69.42-11.37,93.56-23.4,25.63-12.79,52.14-26,104.58-26s79,13.21,104.58,26c24.14,12,46.94,23.4,93.57,23.4s69.42-11.37,93.56-23.4c25.63-12.79,52.14-26,104.58-26s78.95,13.21,104.59,26c24.13,12,46.93,23.4,93.56,23.4s69.42-11.37,93.56-23.4c25.63-12.79,52.14-26,104.58-26s79,13.21,104.58,26c24.13,12,46.93,23.4,93.56,23.4,42.63,0,65.34-9.51,87.36-20.33A1013.55,1013.55,0,0,0,2294.68,1694c-2,0-3.9-.09-5.95-.09C2242.1,1693.94,2219.3,1705.3,2195.17,1717.34Z"/><path class="cls-2" d="M2195.17,1595.8c-25.64,12.78-52.14,26-104.59,26s-78.95-13.22-104.58-26c-24.14-12-46.93-23.41-93.56-23.41s-69.43,11.37-93.56,23.41c-25.63,12.78-52.14,26-104.58,26s-79-13.22-104.58-26c-24.14-12-46.94-23.41-93.57-23.41s-69.42,11.37-93.56,23.41c-25.63,12.78-52.13,26-104.58,26s-79-13.22-104.59-26c-24.13-12-46.93-23.41-93.56-23.41s-69.42,11.37-93.56,23.41c-25.63,12.78-52.14,26-104.58,26s-79-13.22-104.58-26c-24.13-12-46.93-23.41-93.56-23.41-33,0-54,5.71-72.09,13.3q25.68,43.47,55.47,84c5.26-.32,10.76-.5,16.62-.5,52.45,0,78.95,13.21,104.58,26,24.14,12,46.93,23.41,93.56,23.41s69.42-11.37,93.56-23.41c25.63-12.78,52.14-26,104.58-26s79,13.21,104.58,26c24.14,12,46.94,23.41,93.57,23.41s69.42-11.37,93.56-23.41c25.63-12.78,52.14-26,104.58-26s78.95,13.21,104.59,26c24.13,12,46.93,23.41,93.56,23.41s69.42-11.37,93.56-23.41c25.63-12.78,52.14-26,104.58-26s79,13.21,104.58,26c24.13,12,46.93,23.41,93.56,23.41s69.43-11.37,93.57-23.41c25.63-12.78,52.14-26,104.58-26,8.66,0,16.55.39,23.91,1q29.07-39.52,54.28-81.91c-19.47-8.9-41.41-16-78.19-16C2242.1,1572.39,2219.3,1583.76,2195.17,1595.8Z"/><path class="cls-2" d="M1986,1838.88c-24.14-12-46.93-23.4-93.56-23.4s-69.43,11.36-93.56,23.4c-25.63,12.78-52.14,26-104.58,26s-79-13.22-104.58-26c-24.14-12-46.94-23.4-93.57-23.4s-69.42,11.36-93.56,23.4c-25.63,12.78-52.13,26-104.58,26s-79-13.22-104.59-26c-24.13-12-46.93-23.4-93.56-23.4s-69.42,11.36-93.56,23.4c-25.63,12.78-52.14,26-104.58,26a259.69,259.69,0,0,1-28.38-1.48,1010.66,1010.66,0,0,0,114.34,78.67c2.54-1.24,5.06-2.49,7.6-3.75,25.63-12.79,52.14-26,104.58-26s79,13.21,104.58,26c24.14,12,46.94,23.4,93.57,23.4s69.42-11.37,93.56-23.4c25.63-12.79,52.14-26,104.58-26s78.95,13.21,104.59,26c24.13,12,46.93,23.4,93.56,23.4s69.42-11.37,93.56-23.4c25.63-12.79,52.14-26,104.58-26s79,13.21,104.58,26c4,2,7.86,3.91,11.85,5.79a1009.64,1009.64,0,0,0,119.3-81.93,245.11,245.11,0,0,1-37.59,2.7C2038.14,1864.88,2011.63,1851.66,1986,1838.88Z"/><path class="cls-2" d="M1798.88,1960.42c-25.63,12.78-52.14,26-104.58,26s-79-13.22-104.58-26c-24.14-12-46.94-23.4-93.57-23.4s-69.42,11.37-93.56,23.4c-25.63,12.78-52.13,26-104.58,26s-79-13.22-104.59-26c-24.13-12-46.93-23.4-93.56-23.4-42,0-64.64,9.21-86.35,19.83,144.25,79.65,310.06,125,486.49,125,175,0,339.48-44.59,482.88-123-23-11.44-45.83-21.85-90.44-21.85C1845.81,1937,1823,1948.39,1798.88,1960.42Z"/><path class="cls-3" d="M1500.67,1790.68c-5.67-4.92-11.36-9.61-16.77-14.61-19-17.48-37.67-35.23-56.76-52.56-27.13-24.62-54.29-49.2-81.85-73.32-28.88-25.26-58.48-49.69-87.31-75-17.18-15.07-33.49-31.11-50.19-46.72-13-12.11-26.31-23.84-38.81-36.42-32.2-32.41-61.82-67-82.35-108.18-8.28-16.64-17-33.52-21.9-51.28-8.57-30.84-16.38-62.07-16.94-94.49-.18-10.3-1.55-20.58-1.75-30.88-.61-30.85,2.52-61.24,12.32-90.69,7.1-21.32,16.4-41.63,30.22-59.46,9.09-11.73,18.41-23.47,29-33.85a214.46,214.46,0,0,1,81.15-50.15c20.45-7.11,41.48-11.27,62.87-13.52,26.51-2.78,52.37,1.39,78.13,7.82,17.37,4.33,34,10.17,49.74,18.47a255.47,255.47,0,0,1,76.61,61.43c9.58,11.36,18,23.68,26.66,35.8,5.94,8.36,9,8.54,14.28.1a280.83,280.83,0,0,1,78.43-82c26.7-18.6,56.24-30.66,88-37.36,34.18-7.23,68.19-6.22,102.24,1.73,29.13,6.8,56.31,18,80.55,35.28a229.66,229.66,0,0,1,60.18,62.84c18.8,29.06,29.62,60.58,34.81,94.34,3.59,23.33,3.3,46.78,1.94,70.35-2.12,36.83-7.27,73.09-19.16,108-5.6,16.46-13.16,32.34-20.74,48-13.18,27.27-31.18,51.51-51.07,74-19.1,21.64-39.32,42.44-60.43,62.13-31,28.89-63.08,56.53-94.81,84.59-35.61,31.49-71.41,62.78-107,94.32q-29.24,25.9-58,52.36c-12.63,11.64-24.8,23.78-37.21,35.66C1503.72,1788.48,1502.52,1789.25,1500.67,1790.68Z"/><path class="cls-4" d="M1432.11,709.61H1195.88V586.68h235.55V337.39h130.14V586.12h242.55V709.55h-242V1282.9h-130Z"/><path class="cls-4" d="M813.39,1032.77c2.84.54,4.88.45,6.41,1.29,9.33,5.12,19.12,3.32,28.62,1.54,16.08-3,32.07-6.61,48-10.43,10.47-2.51,29.87,4.13,35.71,13.28,1.12,1.75,1.81,4.88,1,6.58-8.07,17.27-9.6,36.23-14.4,54.32-1.14,4.27-1.63,8.71-2.94,12.91-1,3.27-2.34,6.73-4.47,9.33-4.24,5.14-10.1,4.53-12.91-1.31-1.7-3.55-3.7-4.15-7.32-3.67-16.05,2.15-32.15,3.92-48.21,6.06-1.31.18-2.42,2.09-3.57,3.25-1.48,1.5-3,4.36-4.34,4.28a7.38,7.38,0,0,1-5.4-3.77,69.13,69.13,0,0,1-4.37-15.2c-2.7-17.64-4.57-35.42-7.66-53-1-5.91-4.89-11.31-7.3-17-.79-1.86-2-4.33-1.39-5.77S812.21,1033.4,813.39,1032.77Zm90.53,19.84H904v-2.2c.05-9.69-.34-10.06-9.87-9.55-.37,0-.74,0-1.1.05-18.43,2.16-36.87,4.25-55.26,6.66-1.38.18-3.51,2.68-3.5,4.08a118.45,118.45,0,0,0,1.54,17.54c.21,1.27,3,3.19,4.41,3,9.64-1.27,19.23-3,28.83-4.61,9-1.51,18-3.79,27.13-4.35,7.42-.45,7.48.45,7.71-7.32C904,1054.82,903.92,1053.71,903.92,1052.61Zm-5.11,49.51c1.15-8.76,2.25-17.09,3.43-26l-64.46,8.11c.75,7.88,1.55,16.33,2.45,25.76,9-1.55,17-3.1,25.18-4.3C876.19,1104.09,886.52,1099,898.81,1102.12Z"/><path class="cls-4" d="M770.26,1040.92c-.4,16-1,32-1.17,47.95q-.42,39.54-.39,79.08a45.06,45.06,0,0,1-6.07,23.23c-3.6,6.13-7.4,6.18-10.92,0-6-10.53-8.46-21.43-6.31-33.9,3.35-19.38,6.23-39,7.36-58.57,1.72-29.78,2.13-59.66,2.4-89.5.13-15.81-.54-31.69-7.23-46.61-2-4.42,1-8.08,5.8-7.15,9.08,1.75,17.09,6,22.64,13.59,1.37,1.88,1.26,5.26,1,7.85-1.7,15.9-3.77,31.77-5.31,47.68-.15,1.5,2.08,4,3.78,4.79,7,3.25,14.43,5.57,21.27,9.09,8,4.08,10.81,10.79,8.9,18.24-1.59,6.15-5.39,8.28-10.54,4.79-5.43-3.68-10.18-8.39-15-12.87-2.93-2.71-5.46-5.85-8.17-8.8Z"/><path class="cls-4" d="M932.93,1158.89c-32.27,2.41-64.56,4.64-96.81,7.35-8,.67-15.93,2.82-23.87,4.35-10.9,2.11-19.68-3.09-28.21-8.51-3.25-2.06-2.48-5.06,1.21-6.6a16.1,16.1,0,0,1,4.81-1.09c28.23-2.3,56.48-4.29,84.68-6.87,22.34-2,44.58-5,66.9-7.14,10.83-1.06,20.25,3.09,28.3,10.07,1.63,1.41,2.9,4.62,2.46,6.58-.33,1.46-3.66,3.11-5.7,3.17-11.21.3-22.43.14-33.65.14Z"/><path class="cls-4" d="M834.72,1008.82c-5.37-.57-10.86-1-16.29-1.82a13.46,13.46,0,0,1-6-2.54c-1.43-1.12-2.12-3.17-3.14-4.82,1.63-1,3.18-2.52,4.91-2.77,5.09-.74,10.3-.66,15.38-1.42q41.43-6.27,82.8-12.85c7.55-1.21,13.79,1.79,19.68,5.55,3.9,2.5,3.13,6.36-1.55,7.5A235.23,235.23,0,0,1,904,1001C881,1003.84,858,1006.22,834.72,1008.82Z"/><path class="cls-4" d="M733.71,1060c-2.44,10.5-4.51,21.12-7.53,31.45-1.17,4-2.81,9.33-9,8.84-5.15-.4-8.79-5.23-9.37-12a46.5,46.5,0,0,1,3.31-22.06c3.73-9.15,6.47-18.7,9.81-28,.61-1.71,2.08-3.11,3.16-4.66,1.18,1.31,2.74,2.43,3.47,4C730.94,1044.53,733.91,1051.67,733.71,1060Z"/><path class="cls-4" d="M2161.46,1074.06c18.92-3.23,36.66-6.27,54.41-9.28,5.08-.86,10.15-2,15.27-2.37,9.1-.69,16.44,3.29,22.37,9.89,2.65,3,1.71,5.59-2.09,6.61a51.79,51.79,0,0,1-8.7,1.33q-40.71,3.63-81.42,7.15c-3.53.3-5.55,1.83-6.9,5.22-2.84,7.12-6.14,14.07-9.74,22.18,9-1.17,17.05-1.68,24.85-3.37,13.64-3,27.31-6.05,40.62-10.2,9.91-3.08,17.77.42,25.4,5.33,4.66,3,4,6.59.51,11.22-9.71,12.85-19,26-29.45,40.33,9.92,4.86,18.31,9.88,27.33,13.2,16.56,6.11,33.53,11.13,50.25,16.83,2.92,1,5.46,3.08,8.18,4.67-3,1.38-5.85,3.49-9,4-11.06,1.88-22.2,3.36-33.33,4.74-11,1.35-20.8-1.39-29.2-8.78-7.06-6.2-14.29-12.2-21.18-18.58-2.7-2.49-4.3-2.53-7.36-.27-24.11,17.88-51.41,27.5-81.16,30.32-2.85.27-5.82-.8-8.73-1.25-.07-.72-.13-1.43-.19-2.15,3.17-1,6.3-2.13,9.5-3,20.63-5.39,40.28-13.1,58.17-24.82,5.18-3.39,9.82-7.62,15.42-12-13.85-12.91-26.33-25.88-43-33.61-3.55-1.63-4.88.21-6.38,2.93-13.11,23.63-32.19,41-56.27,52.89a70.47,70.47,0,0,1-12,4.12c-1.54.44-3.31.07-5.51-.83,34.23-24.14,62-52.92,74.34-94.9-6.32,1.16-12.13,1.82-17.71,3.34-9.2,2.5-17-.74-24.69-5-1.24-.7-1.87-2.49-2.78-3.78,1.27-.88,2.45-2.33,3.83-2.56,8.89-1.51,17.82-2.77,26.74-4.08,5.46-.81,11-1.3,16.35-2.51,1.67-.38,4-2.55,4.15-4.1a99.92,99.92,0,0,0,.65-18.61c-.57-6.94,1.85-9.4,8.53-7.15a37.49,37.49,0,0,1,4.6,1.86c11.7,5.74,12.28,7.32,7.34,19.2C2162.87,1069.7,2162.42,1071.27,2161.46,1074.06Zm2.1,52-.09,1.54L2194,1149a88.82,88.82,0,0,0,13.71-27.41c1.13-3.76-1.08-5.15-4.54-4.55-4.17.71-8.3,1.62-12.43,2.57C2181.68,1121.73,2172.62,1123.89,2163.56,1126Z"/><path class="cls-4" d="M2236.55,1055.47c3.32-4,6.72-7.88,9.93-11.94s6-8,10-13.39c-4.61-.3-7.28-.79-9.89-.59-20.92,1.59-41.92,2.68-62.74,5.17-25.77,3.1-51.39,7.39-77.08,11.17-9.55,1.41-9.11,1.57-12,10.53a202.61,202.61,0,0,1-9.55,22.87c-1.78,3.81-5,6.75-9.71,5.57s-7.43-4.87-7.61-9.7a24.21,24.21,0,0,1,1.39-9.13q6.93-18.6,14.44-37c.88-2.17,2.79-3.93,4.22-5.88,1.83,1.68,4.47,3,5.31,5.1,1.68,4.15,4.34,4.69,8.23,4.31,37.75-3.68,75.54-7,113.25-11,14.44-1.53,28.69-4.78,43.09-6.76,3.37-.47,7.77,0,10.39,1.86a143.26,143.26,0,0,1,19.75,16.7c5.94,6.13,3.75,11.39-4.62,13.34-13.62,3.18-27.22,6.41-40.84,9.58-1.53.36-3.1.53-4.65.78Z"/><path class="cls-4" d="M2117.37,978.9c3.33-1.59,5.28-2.7,7.35-3.5,21.92-8.41,43.14-18.14,61.36-33.33,4.83-4,9.8-3.94,14.8-.9a66.78,66.78,0,0,1,11.17,8.08c2.19,2.06,5.06,5.73,4.48,7.8-.64,2.31-4.64,4.38-7.56,5.2-8.48,2.41-17.2,4-25.76,6.16-16.23,4.09-32.38,8.52-48.65,12.41C2129.42,982.06,2123.88,982.86,2117.37,978.9Z"/><path class="cls-4" d="M2253,987.33c-2,1.95-3.49,4.43-5.68,5.49-14.27,6.85-28.68,13.4-43.05,20a6,6,0,0,1-2.58.91,29.55,29.55,0,0,1-4.47-1c.52-1.26.73-2.81,1.6-3.73,3.18-3.32,7.14-6,9.78-9.71,6-8.33,11.64-16.94,16.88-25.75,3.58-6,5.22-7.14,11.19-3.25a94.79,94.79,0,0,1,12.7,10.5C2250.82,982.25,2251.46,984.58,2253,987.33Z"/><path class="cls-4" d="M2133.73,1014.82c-.07,5.34-.86,9.6-5.5,11.39a9.15,9.15,0,0,1-11.6-3.84c-5.81-9.07-11.31-18.35-16.71-27.68-1.65-2.83-1.28-5.41,2.92-5.67,10.31-.63,27.1,10.9,30,20.74A38.4,38.4,0,0,1,2133.73,1014.82Z"/><path class="cls-4" d="M2184.15,1005.84c-.51,6.84-1,11.58-6.2,13.54-5,1.87-8.65-.7-11.21-4.67-5-7.69-9.86-15.46-14.42-23.41-2.09-3.66,0-6.89,3.88-5.61,7.91,2.61,15.93,5.58,22.9,10C2182.27,997.69,2183.06,1003.46,2184.15,1005.84Z"/><path class="cls-4" d="M2109.19,2430.52c-10.16.46-18.6,1.94-26.73.9-8.3-1.06-16.4-4.31-24.34-7.28-1.73-.65-3.62-4.53-3.15-6.32s3.76-3.31,6-3.75c13.06-2.51,26.16-4.84,39.31-6.85,5.44-.83,7.35-3.4,7-8.73-1.36-18.29,1.57-37-8-54.35-2.93-5.31,1.32-10.66,7-10a117.84,117.84,0,0,1,27.28,7c5.91,2.26,5.66,8.38,5,14.3-1.46,13.41-2.23,26.9-3.43,42.25,16.15-6.76,27.93.75,41,7.38.69-4.36,1.19-7.94,1.84-11.49,1.44-7.86,5.49-11.19,11.89-7.35a117.34,117.34,0,0,1,23.67,19.45c1.95,2,.93,9.08-1.1,12.36-6.83,11.06-14.76,21.45-22.22,32.13-1.42,2-2.58,4.25-4.49,7.42,9.82,0,18.4-.68,26.8.27,4.57.51,9.25,3.2,13.08,6,2.11,1.55,4,5.79,3.34,8.05s-4.54,4.26-7.27,4.67c-10.86,1.66-21.83,2.62-32.76,3.89-6.31.74-12.67,1.29-18.9,2.5a13.89,13.89,0,0,0-7.34,3.88c-11.79,13.13-23.3,26.5-34.87,39.82-.7.81-1.11,1.88-3,5.1,10.7-3.53,19.54-5.82,27.84-9.38,6.49-2.79,12.29-2.82,18.16.6,7.71,4.48,16,8.38,22.71,14.05s5.26,10.15-2.2,15c-13.11,8.46-25.89,17.42-39,25.86-5.34,3.44-7,6.52-4.71,13.37,4.37,13.21,3.58,13.37,16.71,8.92,7.94-2.69,15.93-5.32,24.06-7.35,2.26-.56,5.09,1.12,7.66,1.77-1.51,2.18-2.54,5.28-4.62,6.39-11,5.85-22,11.65-33.45,16.53-6.38,2.73-8.41,6.4-8.45,13.14-.17,22.55-.56,45.11-1.75,67.62-.59,11.13-4.55,21.55-13.2,29.4-7,6.36-11.53,5.92-17.51-1.14-9.53-11.25-19.21-22.38-28.75-33.62a49,49,0,0,1-3.51-5.4l1.14-2.25c4.77,1.06,9.61,1.89,14.31,3.23,16.18,4.64,20.32,2.34,22.68-14.36,1.85-13.07,2.8-26.26,4.43-42.22-10.83,5-19.11,8.65-27.26,12.6-9.64,4.67-19.53,9-28.61,14.57-8.82,5.43-16.38,4-24.14-1.32-2.15-1.47-4.6-2.79-6.15-4.77-3.1-4-5.67-8.38-8.46-12.61,4-1.49,8-3.24,12.13-4.43,24.73-7.14,49.55-14,74.18-21.45,2.48-.75,5.85-5.48,5.41-7.68-1.56-7.74-4.64-15.17-7.08-22.74-.79-2.48-2.69-6.53-1.86-7.23,2.11-1.78,6.18-3.63,8.22-2.7,8.89,4,12.61-1.21,16.15-7.63,3.35-6.08,7-12,10.07-18.23,2.42-4.95.18-7.6-5-6.15-7.51,2.08-14.71,5.31-22.25,7.28-6.51,1.7-13.35,2.08-19.94,3.54a20.88,20.88,0,0,0-8.23,3.84c-24.2,19.09-50,35.53-78.12,48.25a141.62,141.62,0,0,1-20.39,7.25c-3.25.91-7,.16-10.46.16l-1.11-2.64c16.37-11.24,33.25-21.84,49-33.91,16.28-12.48,32-25.84,47-39.84,14.73-13.76,28.25-28.82,42.82-43.84-1.92,0-3.75-.33-5.42.05-22.86,5.14-45.78,10-68.51,15.71-14.67,3.66-26.71-1.46-38-9.65-2.19-1.6-4.53-5.69-3.9-7.73s4.74-3.92,7.56-4.36c25.16-3.86,50.45-7,75.56-11.14,22.58-3.72,18.63,1,18.64-21.69C2109.2,2446,2109.19,2438.54,2109.19,2430.52Zm26,35.67c7.54,1.49,12.49-.29,16.18-6.35,5.7-9.34,12.29-18.15,17.76-27.61,2.81-4.86,4-10.66,6.13-16.55-12.68,3.07-23.62,5.44-34.35,8.54-2.3.66-5.36,3.92-5.46,6.11C2134.9,2442.08,2135.18,2453.87,2135.18,2466.19Z"/><path class="cls-4" d="M774.08,2524.09c29.74-5.07,57.61-9.85,85.5-14.58,8-1.35,15.94-3.11,24-3.72,14.3-1.08,25.84,5.18,35.15,15.55,4.17,4.64,2.69,8.77-3.28,10.38a80.45,80.45,0,0,1-13.67,2.08q-64,5.72-127.94,11.24c-5.55.48-8.72,2.89-10.84,8.2-4.47,11.2-9.66,22.11-15.31,34.86,14.14-1.85,26.79-2.64,39-5.29,21.44-4.64,42.92-9.51,63.84-16,15.56-4.84,27.91.65,39.9,8.38,7.33,4.72,6.3,10.35.81,17.62-15.25,20.2-29.9,40.85-46.28,63.37,15.58,7.64,28.77,15.52,42.94,20.75,26,9.59,52.69,17.49,79,26.44,4.59,1.56,8.59,4.84,12.86,7.33-4.69,2.18-9.18,5.49-14.1,6.33-17.38,3-34.87,5.28-52.37,7.44-17.21,2.12-32.67-2.18-45.88-13.79-11.09-9.74-22.45-19.18-33.29-29.19-4.24-3.92-6.75-4-11.56-.42-37.88,28.08-80.78,43.2-127.53,47.63-4.47.42-9.14-1.26-13.72-2-.1-1.13-.19-2.25-.29-3.38,5-1.56,9.89-3.34,14.93-4.66,32.41-8.48,63.29-20.59,91.4-39,8.14-5.33,15.43-12,24.22-18.89-21.75-20.29-41.36-40.67-67.63-52.81-5.56-2.57-7.65.34-10,4.61-20.59,37.12-50.58,64.37-88.42,83.11-5.9,2.92-12.43,4.64-18.8,6.47-2.42.69-5.2.11-8.67-1.3,53.79-37.94,97.4-83.16,116.82-149.13-9.93,1.82-19.06,2.86-27.83,5.24-14.46,3.95-26.77-1.15-38.79-7.92-2-1.1-2.94-3.92-4.37-5.94,2-1.39,3.85-3.66,6-4,14-2.37,28-4.35,42-6.41,8.58-1.27,17.27-2,25.7-3.94,2.62-.59,6.26-4,6.52-6.44,1-9.69,1.8-19.57,1-29.24-.89-10.91,2.92-14.77,13.41-11.24a58.88,58.88,0,0,1,7.24,2.92c18.38,9,19.29,11.5,11.52,30.18C776.3,2517.25,775.59,2519.72,774.08,2524.09Zm3.3,81.65-.15,2.43,48,33.75a139.51,139.51,0,0,0,21.54-43.07c1.78-5.91-1.69-8.09-7.13-7.16-6.55,1.12-13,2.55-19.53,4C805.85,2599,791.62,2602.4,777.38,2605.74Z"/><path class="cls-4" d="M1720.66,2498.92c-8.62,17.82-16.49,34.85-25,51.55-26.18,51.44-63.8,92.1-114.77,119.76-7.82,4.24-16.48,7-25,9.84-3.18,1-7,.17-10.5.17-.36-.73-.73-1.46-1.09-2.2,2.71-2.61,5.25-5.43,8.16-7.8,35.16-28.66,67.52-59.91,92.91-97.91s41.68-79.88,53.68-123.66c5.82-21.28,11.22-42.6,8.8-65-.19-1.73-.78-3.49-.57-5.17.62-5.1-.16-12.28,2.81-14.68,3.18-2.58,10.72-2.28,15.11-.36,9.73,4.23,18.92,9.88,27.86,15.7,6.3,4.1,7.24,9.91,4.4,17.45-9.68,25.7-18.72,51.65-27.66,77.63a10.92,10.92,0,0,0,1.26,8.68c32.45,43.91,67.23,85.63,111.6,118.38,30.32,22.37,64.41,37.59,98.48,52.91,3.7,1.66,7.69,2.92,11,5.2,2.8,2,4.77,5.11,7.1,7.74-2.88,1.62-5.61,4.24-8.66,4.69-13.74,2-27.53,4.36-41.36,4.84-17,.59-34.09-.13-51.09-1.09-12.58-.71-22.05-7.85-30.08-17.2A813,813,0,0,1,1725.45,2507C1724.15,2504.51,1722.59,2502.16,1720.66,2498.92Z"/><path class="cls-4" d="M2288,2639.23c-27.81,33.58-61.75,50.56-103.7,49.21l-1.95-3.94c3.23-1.62,6.31-3.67,9.69-4.8,31.87-10.72,57.16-29.89,76-57.85,3.74-5.56,4.16-10,.66-15.75-10.32-17.07-19.11-35.23-37.1-46.2-1.75-1.06-3.49-4.78-2.88-6.39.83-2.2,4.15-5.26,6-5,6.64,1,14.35,1.57,19.32,5.37,7.41,5.66,13,13.77,19,21.11,3.47,4.2,6.28,8.94,11,15.7,2.6-10.57,5.8-18.9,6.53-27.45,1.67-19.57,2.57-39.24,2.91-58.89.17-9.58-1.73-10.34-11-8.39-4,.83-8.19,2.84-11.86,2.11-13.55-2.69-20.7,4.93-28.48,14.25-8.65,10.37-19.08,19.32-29.17,28.42-2.82,2.54-7.14,3.41-10.78,5l-1.91-2.26c1.3-2.6,2.3-5.42,4-7.78,29.78-42.15,53.18-87.61,68.93-136.72,4.89-15.27,7.27-31.47,9.5-47.43,1.75-12.46,5.4-15.31,16.95-9.59a65,65,0,0,1,12.4,7.9c11.87,9.78,11.76,13.41,5,27.05-9.52,19.17-17.64,39-26.88,58.34-6.7,14-14.26,27.63-22.29,43,6.78-1.63,12.35-2.58,17.66-4.33,19.78-6.54,39.65-12.86,59.14-20.18,16-6,28.88.59,41.25,8.84,6.26,4.18,4.7,9.7-3.07,11.34-15.57,3.28-31.31,5.71-46.92,8.76-7.3,1.43-14.49,3.48-22.92,5.53,2.3,2.46,3.66,4.17,5.27,5.6,8.36,7.45,10.89,15.33,7,27-5,15-6.6,31.06-10.2,46.55-3.14,13.49-6.57,27-10.81,40.13-1.69,5.26-.76,8.44,2.47,12.43,22.37,27.67,52.67,43.86,84.09,58.45,8.65,4,17.57,7.5,26.12,11.73,2.25,1.11,3.57,4.11,5.31,6.25-2.13,1.7-4,4.26-6.43,5-21.46,6.26-43.6,7-65.41,4.07-8.35-1.13-17.66-6.9-23.36-13.36-12.18-13.83-22.31-29.48-33.25-44.41C2292,2645.42,2290.49,2643,2288,2639.23Z"/><path class="cls-4" d="M2597.58,2673.76c43.47-3.42,86.39-11,132.11-17.87-9-11.56-16.69-21.14-23.9-31.1-2.68-3.71-4.12-8.31-6.13-12.51,4.61.11,9.73-1.07,13.72.55,20.51,8.26,39.95,18.57,55.38,34.91,11.76,12.47,15.73,27.51,11.87,44.11-2.71,11.68-11,14.45-19.73,6.18-7.48-7.08-13.92-15.45-19.84-23.94-3.52-5-6.73-6.86-12.77-5.31-40.61,10.45-81.34,20.47-121.91,31.1-8.88,2.33-17.48,6.1-25.8,10.06-6.16,2.93-11.26,2.72-15.67-2.24-5.36-6-10.51-12.3-15.38-18.75-3.79-5-3.18-8.92,2.88-12.64,33-20.21,57-49.49,79.46-80.22,2.32-3.17,3.69-7,6.57-12.68-12.24,1.42-22.64,2.39-33,3.89-11.45,1.67-22.84,3.73-34.23,5.79-14.63,2.65-27.41-2.53-39.64-9.49-2.11-1.2-3.09-4.4-4.58-6.67,2.35-1.46,4.57-3.85,7.09-4.22,16.89-2.47,33.85-4.42,50.76-6.71,57.61-7.81,115.27-15.31,172.78-23.75,18-2.64,33.38.49,46.54,12.82,2.64,2.46,5.79,7.28,5,9.75-.91,2.73-6,5.38-9.52,5.68-15.27,1.3-30.63,1.47-45.92,2.55-30.6,2.18-61.17,4.68-91.75,7.07a43.8,43.8,0,0,0-4.68,1c4,5.47,7.79,10.12,11.06,15.09,4.28,6.5,3.62,11.36-3.26,16.83-21.73,17.3-42.74,35.5-64,53.4a48.08,48.08,0,0,0-4.37,4.84C2597,2672.09,2597.3,2672.92,2597.58,2673.76Z"/><path class="cls-4" d="M282.67,2459.21c4.47.85,7.67.72,10.07,2,14.66,8.05,30.05,5.21,45,2.42,25.26-4.74,50.38-10.39,75.39-16.39,16.45-4,46.93,6.49,56.11,20.86,1.75,2.75,2.84,7.67,1.58,10.35-12.68,27.13-15.08,56.92-22.63,85.35-1.78,6.7-2.55,13.69-4.62,20.29-1.61,5.14-3.67,10.57-7,14.65-6.66,8.08-15.87,7.13-20.28-2.06-2.68-5.58-5.81-6.52-11.5-5.76-25.23,3.37-50.53,6.16-75.76,9.53-2.06.27-3.8,3.27-5.61,5.09-2.33,2.36-4.68,6.85-6.82,6.74-3-.17-7.34-3.12-8.48-5.94a108.38,108.38,0,0,1-6.87-23.87c-4.24-27.72-7.17-55.67-12-83.27-1.64-9.29-7.67-17.78-11.47-26.73-1.24-2.92-3.2-6.8-2.19-9.06S280.82,2460.21,282.67,2459.21Zm142.25,31.19h.18c0-1.16,0-2.31,0-3.47.07-15.22-.54-15.81-15.52-15-.57,0-1.15,0-1.73.09-29,3.39-57.92,6.67-86.83,10.45-2.17.29-5.52,4.22-5.49,6.42a182.89,182.89,0,0,0,2.42,27.55c.32,2,4.75,5,6.92,4.74,15.16-2,30.22-4.72,45.3-7.24,14.21-2.38,28.34-6,42.63-6.84,11.66-.71,11.76.71,12.11-11.51C425,2493.86,424.92,2492.13,424.92,2490.4Zm-8,77.78c1.81-13.76,3.54-26.85,5.39-40.85L321,2540.07c1.18,12.4,2.44,25.67,3.85,40.48,14.1-2.43,26.79-4.87,39.57-6.75C381.35,2571.29,397.59,2563.22,416.89,2568.18Z"/><path class="cls-4" d="M2672.72,2392.52c-10.25,14.12-20,27.66-29.88,41.18-35.86,49.34-80.51,88.39-135.4,115.43-13,6.42-19.32,7.81-29.61,5.32,2.44-2.63,4-5.18,6.3-6.67,46.87-30.49,85.81-69.64,121-112.53,13.86-16.9,25.55-35.8,36.5-54.79,4.83-8.38,5.49-19.22,7.74-29,.9-3.93.66-8.11,1.51-12,1.46-6.74,6.51-10.09,12.16-6.47a161.6,161.6,0,0,1,26.12,20.7c5.63,5.54,1.64,12-2.58,17.1s-3.44,7.92,1.78,12.46c19.63,17.06,39.12,34.36,57.61,52.65,29.16,28.84,63.5,49,101.23,64.12,10.2,4.08,20.37,8.31,30.31,13,2.47,1.16,4,4.26,6,6.47-2.17,1.73-4.13,4.59-6.52,5-20.76,3.67-41.5,7.78-62.44,9.93-13.2,1.35-23.86-6.31-32.14-16.25-18.89-22.68-37.22-45.84-56.32-68.34-15-17.61-30.68-34.57-46.18-51.72C2678,2396,2675.46,2394.59,2672.72,2392.52Z"/><path class="cls-4" d="M1420.61,2411.61c1.22,6.61,2.29,13.25,3.71,19.81,3.4,15.77,6.67,31.57,10.56,47.22,2.4,9.68-1,19-12.9,24.47a176.21,176.21,0,0,1-35.13,11.67c-27.67,6.26-55.41,4.44-82.33-3.93-29.63-9.22-43.71-29.69-45.07-62.82-.18-4.59,0-9.2,0-14.89-10.15,2.24-19.23,4.54-28.43,6.16a100.57,100.57,0,0,1-18.1,1.39c-2.36,0-4.72-2-7.08-3.14,1.8-1.61,3.33-3.9,5.44-4.74,12.63-5,25.26-10.1,38.17-14.33,7.69-2.52,11.5-6.75,11.51-14.89,0-22.57.37-45.14.27-67.71,0-3.64-1.65-7.29-2.65-10.91-1.84-6.71,1.46-11.74,7.42-9.2,9,3.82,17.15,9.88,24.72,16.13,1.86,1.53.47,7.54-.09,11.39-2.56,17.71-5.39,35.38-8,53.08-.23,1.56.41,3.25.89,6.68,12.56-6.63,24.57-12.13,35.7-19.06,14.47-9,28.45-18.84,42.22-28.9,11.11-8.11,17.8-9,29.28-1.58a115.44,115.44,0,0,1,13.8,10.51c6.08,5.4,6.2,12.21-.35,16.93-4.8,3.46-10.63,5.76-16.3,7.7-33.35,11.44-66.84,22.46-100.08,34.17-3,1.07-6.71,6.14-6.62,9.26a125.78,125.78,0,0,0,3.78,28.2c2.89,11,10.91,18.28,21.55,22.18,23.07,8.48,46.79,8.35,70.1,2.35,18.69-4.81,28.09-19.24,31.67-37.7,1.6-8.23,3.16-16.48,5-24.65.87-3.76,2.49-7.36,3.76-11Z"/><path class="cls-4" d="M1279.41,2553.5c19-1.55,35.66-2.52,52.26-4.38,24.44-2.72,48.75-6.67,73.22-9,17.6-1.65,32.94,5.38,45.66,17.29,6.6,6.18,4.31,12.43-4.89,13.75a192.43,192.43,0,0,1-25.06,1.62c-43.12.47-86.25.62-129.37,1.13-12.51.14-12.49.51-12.72,13.42-.5,28.08.11,56.25-1.92,84.22-1.34,18.59-6.24,36.95-10.12,55.28-.65,3.1-4.24,5.57-6.47,8.33-2.31-3-5.83-5.79-6.67-9.2a89.84,89.84,0,0,1-2.45-20.61c-.31-39.1-.3-78.21-.39-117.31,0-3.43,0-6.86,0-11.72-14,.85-27.21.82-40.2,2.6-28.37,3.87-56.58,8.8-84.9,13-16.65,2.49-30.47-5.14-43.55-13.85-5.34-3.55-3.75-8.21,1.82-10.52,3.09-1.28,6.74-1.45,10.16-1.69q75.33-5.45,150.65-10.68c4.43-.31,6.52-1.95,6-6.32-1.2-9.44-2.12-18.94-4-28.26-2-10.29,1.64-14.49,11.94-12.08a75.56,75.56,0,0,1,13.12,4.5c13.44,5.91,15.2,10.12,11.16,24C1281.36,2541.63,1280.79,2546.44,1279.41,2553.5Z"/><path class="cls-4" d="M214.9,2472c-.63,25.12-1.57,50.23-1.84,75.35-.45,41.42-.58,82.84-.62,124.26,0,13.09-2.94,25.27-9.54,36.51-5.64,9.62-11.63,9.7-17.16,0-9.44-16.54-13.29-33.67-9.91-53.27,5.26-30.45,9.79-61.22,11.57-92,2.71-46.79,3.35-93.73,3.76-140.62.22-24.84-.84-49.8-11.35-73.25-3.11-6.94,1.49-12.7,9.12-11.23,14.26,2.75,26.84,9.45,35.57,21.36,2.15,2.94,2,8.26,1.53,12.34-2.67,25-5.91,49.91-8.34,74.91-.23,2.36,3.27,6.28,5.95,7.53,11,5.11,22.67,8.76,33.42,14.27,12.51,6.43,17,17,14,28.67-2.48,9.67-8.46,13-16.55,7.53-8.53-5.78-16-13.18-23.61-20.23-4.6-4.26-8.58-9.19-12.84-13.82Z"/><path class="cls-4" d="M892.07,2494.9c5.21-6.25,10.56-12.39,15.6-18.77,4.88-6.17,9.44-12.58,15.75-21-7.25-.47-11.44-1.25-15.54-.94-32.88,2.51-65.87,4.21-98.59,8.14-40.49,4.86-80.75,11.6-121.11,17.55-15,2.21-14.32,2.46-18.91,16.54-4,12.31-9.5,24.19-15,35.94-2.81,6-7.79,10.61-15.26,8.76-7.63-1.89-11.67-7.66-12-15.25a37.9,37.9,0,0,1,2.17-14.34q10.89-29.23,22.7-58.13c1.38-3.41,4.37-6.17,6.62-9.23,2.87,2.63,7,4.74,8.35,8,2.64,6.52,6.81,7.37,12.93,6.77,59.32-5.78,118.69-11,177.95-17.24,22.69-2.4,45.08-7.51,67.71-10.62,5.3-.73,12.21,0,16.33,2.93a224.83,224.83,0,0,1,31,26.24c9.33,9.63,5.9,17.9-7.26,21-21.4,5-42.78,10.06-64.17,15.05-2.4.56-4.87.82-7.31,1.23Z"/><path class="cls-4" d="M1166,2415.74c-22.56,18.55-43.44,38.31-71.63,45.78l-2.27-2.95c2.63-2.69,5.09-5.59,7.93-8.05,31.65-27.34,57.81-59.23,77.44-96.1,5.29-9.93,7.61-21.64,10.15-32.79,2.2-9.64,5.3-12.74,14.09-8.07,8.23,4.37,15.6,10.67,22.55,17,4,3.65,3.23,8.13-.65,13-13.38,16.68-26.22,33.82-38.87,51.07-1.32,1.81-1.18,6.49.24,8.22,7.56,9.17,7.86,18.49,6.79,30.38-2,22.58.7,45.55.09,68.32-.29,10.72-2.84,21.64-6,31.95-2.52,8.09-9.27,8.68-13.17,1.37-7.29-13.7-14.71-27.24-8.52-44.29S1170.46,2428.27,1166,2415.74Z"/><path class="cls-4" d="M470.51,2657.39c-50.71,3.78-101.45,7.3-152.12,11.55-12.61,1.06-25,4.43-37.52,6.84-17.12,3.31-30.91-4.86-44.32-13.37-5.11-3.24-3.9-8,1.9-10.37a25,25,0,0,1,7.55-1.72c44.36-3.61,88.76-6.74,133.08-10.79,35.09-3.21,70.05-7.79,105.12-11.22,17-1.67,31.81,4.85,44.46,15.83,2.55,2.22,4.56,7.26,3.86,10.33-.51,2.29-5.75,4.89-8.95,5-17.62.48-35.25.23-52.88.23Z"/><path class="cls-4" d="M316.19,2421.59c-8.44-.9-17.07-1.56-25.6-2.87a21,21,0,0,1-9.44-4c-2.25-1.76-3.34-5-4.94-7.57,2.56-1.52,5-4,7.72-4.36,8-1.16,16.18-1,24.16-2.24q65.1-9.84,130.11-20.18c11.86-1.9,21.67,2.81,30.91,8.72,6.14,3.93,4.93,10-2.43,11.79-13.72,3.36-27.59,6.55-41.59,8.31C389,2413.76,352.72,2417.49,316.19,2421.59Z"/><path class="cls-4" d="M704.8,2374.58c5.22-2.51,8.29-4.25,11.55-5.5,34.45-13.23,67.79-28.51,96.41-52.39,7.6-6.33,15.41-6.18,23.27-1.41a105.7,105.7,0,0,1,17.54,12.7c3.45,3.25,7.95,9,7,12.27-1,3.61-7.29,6.87-11.87,8.16-13.34,3.78-27,6.3-40.49,9.68-25.5,6.42-50.87,13.38-76.44,19.5C723.73,2379.53,715,2380.8,704.8,2374.58Z"/><path class="cls-4" d="M2628.23,2516.55c-7.83-1.8-15.82-3.14-23.4-5.67-2.65-.88-4.31-4.7-6.42-7.18,2.52-2.08,4.77-5.4,7.61-6,11.28-2.47,22.79-3.89,34.14-6.08,17.59-3.4,35.07-7.29,52.67-10.61,13.34-2.51,25.86,1,37.55,7.12,6,3.15,5.88,8-.45,10.83a74.84,74.84,0,0,1-19.06,5.3c-24.55,3.8-49.16,7.19-73.76,10.69-2.85.4-5.75.5-8.63.74C2628.39,2516,2628.31,2516.26,2628.23,2516.55Z"/><path class="cls-4" d="M157.47,2502c-3.84,16.5-7.09,33.18-11.83,49.42-1.85,6.32-4.43,14.65-14.1,13.89-8.09-.64-13.82-8.22-14.73-18.82a73.23,73.23,0,0,1,5.21-34.68c5.86-14.37,10.16-29.38,15.41-44,1-2.68,3.27-4.89,5-7.31,1.85,2.05,4.31,3.81,5.46,6.2C153.11,2477.7,157.78,2488.92,157.47,2502Z"/><path class="cls-4" d="M917.83,2387.82c-3.09,3.07-5.47,7-8.92,8.62-22.42,10.77-45.06,21.06-67.64,31.49-1.31.61-2.74,1.52-4,1.43a45.79,45.79,0,0,1-7-1.54c.81-2,1.14-4.42,2.52-5.86,5-5.22,11.21-9.48,15.36-15.25,9.4-13.1,18.29-26.62,26.53-40.47,5.62-9.45,8.2-11.22,17.58-5.1,7.19,4.69,13.65,10.61,20,16.49C914.49,2379.84,915.5,2383.5,917.83,2387.82Z"/><path class="cls-4" d="M730.5,2431c-.1,8.38-1.35,15.08-8.64,17.88s-14.1.42-18.22-6c-9.13-14.26-17.78-28.84-26.27-43.5-2.58-4.45-2-8.5,4.6-8.91,16.19-1,42.58,17.14,47.13,32.59A57.59,57.59,0,0,1,730.5,2431Z"/><path class="cls-4" d="M809.73,2416.9c-.79,10.75-1.56,18.2-9.74,21.27-7.85,2.95-13.59-1.1-17.62-7.32-7.83-12.09-15.49-24.3-22.65-36.8-3.3-5.75,0-10.82,6.1-8.82,12.42,4.11,25,8.78,36,15.71C806.78,2404.09,808,2413.17,809.73,2416.9Z"/><path class="cls-4" d="M440.54,2841.63h9.55l41.17,91h-11l-10.58-23.88H420.53l-10.71,23.88H399.37Zm25.16,57.82-20.51-45.94-20.66,45.94Z"/><path class="cls-4" d="M509.06,2842.28h38.46c10.33,0,18.46,3,23.62,8a20.06,20.06,0,0,1,5.81,14.46v.26c0,11.74-7.23,17.81-14.33,20.91,10.72,3.22,19.37,9.42,19.37,21.8v.27c0,15.48-13,24.65-32.79,24.65H509.06Zm57.57,23.88c0-8.91-7.1-14.72-20-14.72H519.13v31.11h26.72c12.26,0,20.78-5.55,20.78-16.14Zm-19,25.42H519.13v31.88h30.33c13.68,0,22.2-6.06,22.2-16.13v-.26C571.66,2897.26,563.4,2891.58,547.65,2891.58Z"/><path class="cls-4" d="M603.14,2842.28h10.2v90.35h-10.2Z"/><path class="cls-4" d="M639.79,2842.28h31.36c28.4,0,48,19.49,48,44.92v.26c0,25.42-19.62,45.17-48,45.17H639.79Zm10.2,9.42v71.51h21.16c22.85,0,37.43-15.5,37.43-35.5v-.25c0-20-14.58-35.76-37.43-35.76Z"/><path class="cls-4" d="M741.62,2842.28h10.19v90.35H741.62Z"/><path class="cls-4" d="M778.27,2842.28h9.55l56.92,72.41v-72.41h9.93v90.35h-8.13l-58.33-74.09v74.09h-9.94Z"/><path class="cls-4" d="M876.22,2887.71v-.25c0-24.79,18.2-46.73,45.3-46.73,15.23,0,24.65,4.39,33.69,12l-6.59,7.75c-7-6.07-14.71-10.32-27.49-10.32-20,0-34.33,16.9-34.33,37v.26c0,21.55,13.81,37.55,35.75,37.55a42.48,42.48,0,0,0,26.07-9v-22.45H921.13v-9.16h37.3v36a54.72,54.72,0,0,1-36.27,13.82C893.77,2934.18,876.22,2913.52,876.22,2887.71Z"/><path class="cls-4" d="M1020.11,2842.28h10.2v80.93h50.85v9.42h-61.05Z"/><path class="cls-4" d="M1090.83,2887.71v-.25c0-24.92,18.71-46.73,46.21-46.73s45.94,21.56,45.94,46.47v.26c0,24.9-18.71,46.72-46.2,46.72S1090.83,2912.62,1090.83,2887.71Zm81.57,0v-.25c0-20.53-15-37.3-35.62-37.3s-35.37,16.52-35.37,37v.26c0,20.52,15,37.29,35.63,37.29S1172.4,2908.23,1172.4,2887.71Z"/><path class="cls-4" d="M1191.49,2842.28h11.36l32.14,77.83,32.27-77.83h11l-38.85,91h-9Z"/><path class="cls-4" d="M1296,2842.28h65.31v9.29h-55.11v30.85h49.3v9.29h-49.3v31.62H1362v9.3h-66Z"/><path class="cls-4" d="M1417.21,2887.71v-.25c0-25.56,19.1-46.73,45.69-46.73,16.39,0,26.2,5.81,35.23,14.33l-7,7.48c-7.61-7.22-16.13-12.38-28.39-12.38-20,0-35,16.25-35,37v.26c0,20.9,15.1,37.29,35,37.29,12.39,0,20.52-4.77,29.17-13l6.71,6.58c-9.42,9.55-19.75,15.88-36.14,15.88C1436.44,2934.18,1417.21,2913.65,1417.21,2887.71Z"/><path class="cls-4" d="M1516.45,2842.28h10.2v40.14h52.14v-40.14H1589v90.35h-10.2V2892h-52.14v40.66h-10.2Z"/><path class="cls-4" d="M1615.44,2842.28h10.19v90.35h-10.19Z"/><path class="cls-4" d="M1652.08,2842.28h9.56l56.91,72.41v-72.41h9.94v90.35h-8.13L1662,2858.54v74.09h-10Z"/><path class="cls-4" d="M1754,2842.28h65.31v9.29h-55.11v30.85h49.3v9.29h-49.3v31.62H1820v9.3h-66Z"/><path class="cls-4" d="M1834.57,2919.46l6.32-7.49c9.42,8.53,18.46,12.78,31,12.78,12.13,0,20.13-6.45,20.13-15.36v-.25c0-8.39-4.52-13.17-23.49-17.17-20.78-4.51-30.33-11.23-30.33-26.07v-.26c0-14.2,12.52-24.65,29.69-24.65,13.16,0,22.58,3.74,31.75,11.1l-5.94,7.87c-8.39-6.84-16.78-9.8-26.07-9.8-11.75,0-19.23,6.44-19.23,14.58v.26c0,8.51,4.65,13.29,24.52,17.55,20.13,4.39,29.43,11.74,29.43,25.55v.26c0,15.49-12.91,25.56-30.85,25.56C1857.16,2933.92,1845.41,2929.14,1834.57,2919.46Z"/><path class="cls-4" d="M1923.1,2842.28h65.3v9.29h-55.1v30.85h49.3v9.29h-49.3v31.62h55.75v9.3h-66Z"/><path class="cls-4" d="M2044.28,2887.71v-.25c0-25.56,19.1-46.73,45.69-46.73,16.39,0,26.2,5.81,35.23,14.33l-7,7.48c-7.62-7.22-16.14-12.38-28.4-12.38-20,0-35,16.25-35,37v.26c0,20.9,15.1,37.29,35,37.29,12.39,0,20.52-4.77,29.17-13l6.71,6.58c-9.42,9.55-19.75,15.88-36.14,15.88C2063.51,2934.18,2044.28,2913.65,2044.28,2887.71Z"/><path class="cls-4" d="M2143.52,2842.28h10.2v40.14h52.14v-40.14h10.2v90.35h-10.2V2892h-52.14v40.66h-10.2Z"/><path class="cls-4" d="M2240.18,2894.81v-52.53h10.2v51.89c0,19.48,10.45,30.45,27.62,30.45,16.65,0,27.23-10.06,27.23-29.81v-52.53h10.2V2894c0,26.33-15.1,40-37.69,40C2255.41,2934,2240.18,2920.36,2240.18,2894.81Z"/><path class="cls-4" d="M2339.55,2842.28h38.85c11.1,0,20,3.35,25.69,9a24.93,24.93,0,0,1,7,17.81v.26c0,15-10.33,23.74-24.52,26.33l27.74,36.91h-12.51l-26.2-35.11h-25.82v35.11h-10.2Zm37.95,46.08c13.55,0,23.23-7,23.23-18.59v-.26c0-11.09-8.52-17.81-23.1-17.81h-27.88v36.66Z"/><path class="cls-4" d="M2428.86,2887.71v-.25c0-25.56,19.1-46.73,45.69-46.73,16.39,0,26.2,5.81,35.23,14.33l-7,7.48c-7.62-7.22-16.13-12.38-28.39-12.38-20,0-35,16.25-35,37v.26c0,20.9,15.1,37.29,35,37.29,12.39,0,20.52-4.77,29.17-13l6.71,6.58c-9.42,9.55-19.75,15.88-36.14,15.88C2448.09,2934.18,2428.86,2913.65,2428.86,2887.71Z"/><path class="cls-4" d="M2528.1,2842.28h10.2v40.14h52.14v-40.14h10.19v90.35h-10.19V2892H2538.3v40.66h-10.2Z"/></svg>